<svg width="253" height="184" viewBox="0 0 253 184" fill="none" xmlns="http://www.w3.org/2000/svg">
<path d="M5.5 148.641L5.66406 151.57C7.53906 149.305 10 148.172 13.0469 148.172C18.3281 148.172 21.0156 151.195 21.1094 157.242V174H15.4141V157.57C15.4141 155.961 15.0625 154.773 14.3594 154.008C13.6719 153.227 12.5391 152.836 10.9609 152.836C8.66406 152.836 6.95312 153.875 5.82812 155.953V174H0.132812V148.641H5.5ZM25.9375 161.133C25.9375 157.195 26.8594 154.055 28.7031 151.711C30.5625 149.352 33.0234 148.172 36.0859 148.172C38.9766 148.172 41.25 149.18 42.9062 151.195L43.1641 148.641H48.2969V173.227C48.2969 176.555 47.2578 179.18 45.1797 181.102C43.1172 183.023 40.3281 183.984 36.8125 183.984C34.9531 183.984 33.1328 183.594 31.3516 182.812C29.5859 182.047 28.2422 181.039 27.3203 179.789L30.0156 176.367C31.7656 178.445 33.9219 179.484 36.4844 179.484C38.375 179.484 39.8672 178.969 40.9609 177.938C42.0547 176.922 42.6016 175.422 42.6016 173.438V171.727C40.9609 173.555 38.7734 174.469 36.0391 174.469C33.0703 174.469 30.6406 173.289 28.75 170.93C26.875 168.57 25.9375 165.305 25.9375 161.133ZM31.6094 161.625C31.6094 164.172 32.125 166.18 33.1562 167.648C34.2031 169.102 35.6484 169.828 37.4922 169.828C39.7891 169.828 41.4922 168.844 42.6016 166.875V155.719C41.5234 153.797 39.8359 152.836 37.5391 152.836C35.6641 152.836 34.2031 153.578 33.1562 155.062C32.125 156.547 31.6094 158.734 31.6094 161.625ZM63.2734 156.984L68.1016 148.641H74.4297L66.6719 161.133L74.6875 174H68.4062L63.3438 165.328L58.3047 174H51.9766L59.9922 161.133L52.2578 148.641H58.5391L63.2734 156.984ZM89.3594 161.789H77.0547V157.195H89.3594V161.789ZM108.273 167.109C108.273 166.094 107.852 165.32 107.008 164.789C106.18 164.258 104.797 163.789 102.859 163.383C100.922 162.977 99.3047 162.461 98.0078 161.836C95.1641 160.461 93.7422 158.469 93.7422 155.859C93.7422 153.672 94.6641 151.844 96.5078 150.375C98.3516 148.906 100.695 148.172 103.539 148.172C106.57 148.172 109.016 148.922 110.875 150.422C112.75 151.922 113.688 153.867 113.688 156.258H107.992C107.992 155.164 107.586 154.258 106.773 153.539C105.961 152.805 104.883 152.438 103.539 152.438C102.289 152.438 101.266 152.727 100.469 153.305C99.6875 153.883 99.2969 154.656 99.2969 155.625C99.2969 156.5 99.6641 157.18 100.398 157.664C101.133 158.148 102.617 158.641 104.852 159.141C107.086 159.625 108.836 160.211 110.102 160.898C111.383 161.57 112.328 162.383 112.938 163.336C113.562 164.289 113.875 165.445 113.875 166.805C113.875 169.086 112.93 170.938 111.039 172.359C109.148 173.766 106.672 174.469 103.609 174.469C101.531 174.469 99.6797 174.094 98.0547 173.344C96.4297 172.594 95.1641 171.562 94.2578 170.25C93.3516 168.938 92.8984 167.523 92.8984 166.008H98.4297C98.5078 167.352 99.0156 168.391 99.9531 169.125C100.891 169.844 102.133 170.203 103.68 170.203C105.18 170.203 106.32 169.922 107.102 169.359C107.883 168.781 108.273 168.031 108.273 167.109ZM125.992 142.477V148.641H130.469V152.859H125.992V167.016C125.992 167.984 126.18 168.688 126.555 169.125C126.945 169.547 127.633 169.758 128.617 169.758C129.273 169.758 129.938 169.68 130.609 169.523V173.93C129.312 174.289 128.062 174.469 126.859 174.469C122.484 174.469 120.297 172.055 120.297 167.227V152.859H116.125V148.641H120.297V142.477H125.992ZM133.07 161.086C133.07 158.602 133.562 156.367 134.547 154.383C135.531 152.383 136.914 150.852 138.695 149.789C140.477 148.711 142.523 148.172 144.836 148.172C148.258 148.172 151.031 149.273 153.156 151.477C155.297 153.68 156.453 156.602 156.625 160.242L156.648 161.578C156.648 164.078 156.164 166.312 155.195 168.281C154.242 170.25 152.867 171.773 151.07 172.852C149.289 173.93 147.227 174.469 144.883 174.469C141.305 174.469 138.438 173.281 136.281 170.906C134.141 168.516 133.07 165.336 133.07 161.367V161.086ZM138.766 161.578C138.766 164.188 139.305 166.234 140.383 167.719C141.461 169.188 142.961 169.922 144.883 169.922C146.805 169.922 148.297 169.172 149.359 167.672C150.438 166.172 150.977 163.977 150.977 161.086C150.977 158.523 150.422 156.492 149.312 154.992C148.219 153.492 146.727 152.742 144.836 152.742C142.977 152.742 141.5 153.484 140.406 154.969C139.312 156.438 138.766 158.641 138.766 161.578ZM174.742 153.844C173.992 153.719 173.219 153.656 172.422 153.656C169.812 153.656 168.055 154.656 167.148 156.656V174H161.453V148.641H166.891L167.031 151.477C168.406 149.273 170.312 148.172 172.75 148.172C173.562 148.172 174.234 148.281 174.766 148.5L174.742 153.844ZM192.789 174C192.539 173.516 192.32 172.727 192.133 171.633C190.32 173.523 188.102 174.469 185.477 174.469C182.93 174.469 180.852 173.742 179.242 172.289C177.633 170.836 176.828 169.039 176.828 166.898C176.828 164.195 177.828 162.125 179.828 160.688C181.844 159.234 184.719 158.508 188.453 158.508H191.945V156.844C191.945 155.531 191.578 154.484 190.844 153.703C190.109 152.906 188.992 152.508 187.492 152.508C186.195 152.508 185.133 152.836 184.305 153.492C183.477 154.133 183.062 154.953 183.062 155.953H177.367C177.367 154.562 177.828 153.266 178.75 152.062C179.672 150.844 180.922 149.891 182.5 149.203C184.094 148.516 185.867 148.172 187.82 148.172C190.789 148.172 193.156 148.922 194.922 150.422C196.688 151.906 197.594 154 197.641 156.703V168.141C197.641 170.422 197.961 172.242 198.602 173.602V174H192.789ZM186.531 169.898C187.656 169.898 188.711 169.625 189.695 169.078C190.695 168.531 191.445 167.797 191.945 166.875V162.094H188.875C186.766 162.094 185.18 162.461 184.117 163.195C183.055 163.93 182.523 164.969 182.523 166.312C182.523 167.406 182.883 168.281 183.602 168.938C184.336 169.578 185.312 169.898 186.531 169.898ZM202.609 161.133C202.609 157.195 203.531 154.055 205.375 151.711C207.234 149.352 209.695 148.172 212.758 148.172C215.648 148.172 217.922 149.18 219.578 151.195L219.836 148.641H224.969V173.227C224.969 176.555 223.93 179.18 221.852 181.102C219.789 183.023 217 183.984 213.484 183.984C211.625 183.984 209.805 183.594 208.023 182.812C206.258 182.047 204.914 181.039 203.992 179.789L206.688 176.367C208.438 178.445 210.594 179.484 213.156 179.484C215.047 179.484 216.539 178.969 217.633 177.938C218.727 176.922 219.273 175.422 219.273 173.438V171.727C217.633 173.555 215.445 174.469 212.711 174.469C209.742 174.469 207.312 173.289 205.422 170.93C203.547 168.57 202.609 165.305 202.609 161.133ZM208.281 161.625C208.281 164.172 208.797 166.18 209.828 167.648C210.875 169.102 212.32 169.828 214.164 169.828C216.461 169.828 218.164 168.844 219.273 166.875V155.719C218.195 153.797 216.508 152.836 214.211 152.836C212.336 152.836 210.875 153.578 209.828 155.062C208.797 156.547 208.281 158.734 208.281 161.625ZM242.008 174.469C238.398 174.469 235.469 173.336 233.219 171.07C230.984 168.789 229.867 165.758 229.867 161.977V161.273C229.867 158.742 230.352 156.484 231.32 154.5C232.305 152.5 233.68 150.945 235.445 149.836C237.211 148.727 239.18 148.172 241.352 148.172C244.805 148.172 247.469 149.273 249.344 151.477C251.234 153.68 252.18 156.797 252.18 160.828V163.125H235.609C235.781 165.219 236.477 166.875 237.695 168.094C238.93 169.312 240.477 169.922 242.336 169.922C244.945 169.922 247.07 168.867 248.711 166.758L251.781 169.688C250.766 171.203 249.406 172.383 247.703 173.227C246.016 174.055 244.117 174.469 242.008 174.469ZM241.328 152.742C239.766 152.742 238.5 153.289 237.531 154.383C236.578 155.477 235.969 157 235.703 158.953H246.555V158.531C246.43 156.625 245.922 155.188 245.031 154.219C244.141 153.234 242.906 152.742 241.328 152.742Z" fill="black"/>
<path d="M171.339 21.6306V108.297C171.339 109.29 170.527 110.103 169.534 110.103H82.8672C81.8741 110.103 81.0616 109.29 81.0616 108.297V21.6306C81.0616 20.6375 81.8741 19.825 82.8672 19.825H169.534C170.527 19.825 171.339 20.6375 171.339 21.6306Z" fill="#F4AA41"/>
<path d="M140.952 105.851V110.103H111.467V105.851C111.467 103.823 113.905 102.164 116.884 102.164H135.535C138.514 102.164 140.952 103.823 140.952 105.851Z" fill="#D0CFCE"/>
<path d="M140.846 21.6044V30.9409C140.846 32.8618 138.408 34.4334 135.429 34.4334H116.778C113.799 34.4334 111.361 32.8618 111.361 30.9409V21.6044" fill="#D0CFCE"/>
<path d="M171.339 21.6306V108.297C171.339 109.29 170.527 110.103 169.534 110.103H82.8672C81.8741 110.103 81.0616 109.29 81.0616 108.297V21.6306C81.0616 20.6375 81.8741 19.825 82.8672 19.825H169.534C170.527 19.825 171.339 20.6375 171.339 21.6306Z" stroke="black" stroke-width="2" stroke-miterlimit="10" stroke-linecap="round" stroke-linejoin="round"/>
<path d="M135.651 53.1516H116.768C113.851 53.1516 111.464 50.7648 111.464 47.8474C111.464 44.9302 113.851 42.5432 116.768 42.5432H135.651C138.568 42.5432 140.955 44.93 140.955 47.8474C140.955 50.7648 138.568 53.1516 135.651 53.1516Z" fill="black" stroke="black" stroke-width="2" stroke-miterlimit="10"/>
<path d="M140.952 105.851V110.103H111.467V105.851C111.467 103.823 113.905 102.164 116.884 102.164H135.535C138.514 102.164 140.952 103.823 140.952 105.851Z" stroke="black" stroke-width="2" stroke-miterlimit="10" stroke-linecap="round" stroke-linejoin="round"/>
<path d="M140.846 21.6044V30.9409C140.846 32.8618 138.408 34.4334 135.429 34.4334H116.778C113.799 34.4334 111.361 32.8618 111.361 30.9409V21.6044" stroke="black" stroke-width="2" stroke-miterlimit="10" stroke-linecap="round" stroke-linejoin="round"/>
</svg>
