<svg width="332" height="184" viewBox="0 0 332 184" fill="none" xmlns="http://www.w3.org/2000/svg">
<path d="M5.47656 148.641L5.64062 151.57C7.51562 149.305 9.97656 148.172 13.0234 148.172C18.3047 148.172 20.9922 151.195 21.0859 157.242V174H15.3906V157.57C15.3906 155.961 15.0391 154.773 14.3359 154.008C13.6484 153.227 12.5156 152.836 10.9375 152.836C8.64062 152.836 6.92969 153.875 5.80469 155.953V174H0.109375V148.641H5.47656ZM25.9141 161.133C25.9141 157.195 26.8359 154.055 28.6797 151.711C30.5391 149.352 33 148.172 36.0625 148.172C38.9531 148.172 41.2266 149.18 42.8828 151.195L43.1406 148.641H48.2734V173.227C48.2734 176.555 47.2344 179.18 45.1562 181.102C43.0938 183.023 40.3047 183.984 36.7891 183.984C34.9297 183.984 33.1094 183.594 31.3281 182.812C29.5625 182.047 28.2188 181.039 27.2969 179.789L29.9922 176.367C31.7422 178.445 33.8984 179.484 36.4609 179.484C38.3516 179.484 39.8438 178.969 40.9375 177.938C42.0312 176.922 42.5781 175.422 42.5781 173.438V171.727C40.9375 173.555 38.75 174.469 36.0156 174.469C33.0469 174.469 30.6172 173.289 28.7266 170.93C26.8516 168.57 25.9141 165.305 25.9141 161.133ZM31.5859 161.625C31.5859 164.172 32.1016 166.18 33.1328 167.648C34.1797 169.102 35.625 169.828 37.4688 169.828C39.7656 169.828 41.4688 168.844 42.5781 166.875V155.719C41.5 153.797 39.8125 152.836 37.5156 152.836C35.6406 152.836 34.1797 153.578 33.1328 155.062C32.1016 156.547 31.5859 158.734 31.5859 161.625ZM63.25 156.984L68.0781 148.641H74.4062L66.6484 161.133L74.6641 174H68.3828L63.3203 165.328L58.2812 174H51.9531L59.9688 161.133L52.2344 148.641H58.5156L63.25 156.984ZM89.3359 161.789H77.0312V157.195H89.3359V161.789ZM108.25 167.109C108.25 166.094 107.828 165.32 106.984 164.789C106.156 164.258 104.773 163.789 102.836 163.383C100.898 162.977 99.2812 162.461 97.9844 161.836C95.1406 160.461 93.7188 158.469 93.7188 155.859C93.7188 153.672 94.6406 151.844 96.4844 150.375C98.3281 148.906 100.672 148.172 103.516 148.172C106.547 148.172 108.992 148.922 110.852 150.422C112.727 151.922 113.664 153.867 113.664 156.258H107.969C107.969 155.164 107.562 154.258 106.75 153.539C105.938 152.805 104.859 152.438 103.516 152.438C102.266 152.438 101.242 152.727 100.445 153.305C99.6641 153.883 99.2734 154.656 99.2734 155.625C99.2734 156.5 99.6406 157.18 100.375 157.664C101.109 158.148 102.594 158.641 104.828 159.141C107.062 159.625 108.812 160.211 110.078 160.898C111.359 161.57 112.305 162.383 112.914 163.336C113.539 164.289 113.852 165.445 113.852 166.805C113.852 169.086 112.906 170.938 111.016 172.359C109.125 173.766 106.648 174.469 103.586 174.469C101.508 174.469 99.6562 174.094 98.0312 173.344C96.4062 172.594 95.1406 171.562 94.2344 170.25C93.3281 168.938 92.875 167.523 92.875 166.008H98.4062C98.4844 167.352 98.9922 168.391 99.9297 169.125C100.867 169.844 102.109 170.203 103.656 170.203C105.156 170.203 106.297 169.922 107.078 169.359C107.859 168.781 108.25 168.031 108.25 167.109ZM125.969 142.477V148.641H130.445V152.859H125.969V167.016C125.969 167.984 126.156 168.688 126.531 169.125C126.922 169.547 127.609 169.758 128.594 169.758C129.25 169.758 129.914 169.68 130.586 169.523V173.93C129.289 174.289 128.039 174.469 126.836 174.469C122.461 174.469 120.273 172.055 120.273 167.227V152.859H116.102V148.641H120.273V142.477H125.969ZM133.047 161.086C133.047 158.602 133.539 156.367 134.523 154.383C135.508 152.383 136.891 150.852 138.672 149.789C140.453 148.711 142.5 148.172 144.812 148.172C148.234 148.172 151.008 149.273 153.133 151.477C155.273 153.68 156.43 156.602 156.602 160.242L156.625 161.578C156.625 164.078 156.141 166.312 155.172 168.281C154.219 170.25 152.844 171.773 151.047 172.852C149.266 173.93 147.203 174.469 144.859 174.469C141.281 174.469 138.414 173.281 136.258 170.906C134.117 168.516 133.047 165.336 133.047 161.367V161.086ZM138.742 161.578C138.742 164.188 139.281 166.234 140.359 167.719C141.438 169.188 142.938 169.922 144.859 169.922C146.781 169.922 148.273 169.172 149.336 167.672C150.414 166.172 150.953 163.977 150.953 161.086C150.953 158.523 150.398 156.492 149.289 154.992C148.195 153.492 146.703 152.742 144.812 152.742C142.953 152.742 141.477 153.484 140.383 154.969C139.289 156.438 138.742 158.641 138.742 161.578ZM174.719 153.844C173.969 153.719 173.195 153.656 172.398 153.656C169.789 153.656 168.031 154.656 167.125 156.656V174H161.43V148.641H166.867L167.008 151.477C168.383 149.273 170.289 148.172 172.727 148.172C173.539 148.172 174.211 148.281 174.742 148.5L174.719 153.844ZM192.766 174C192.516 173.516 192.297 172.727 192.109 171.633C190.297 173.523 188.078 174.469 185.453 174.469C182.906 174.469 180.828 173.742 179.219 172.289C177.609 170.836 176.805 169.039 176.805 166.898C176.805 164.195 177.805 162.125 179.805 160.688C181.82 159.234 184.695 158.508 188.43 158.508H191.922V156.844C191.922 155.531 191.555 154.484 190.82 153.703C190.086 152.906 188.969 152.508 187.469 152.508C186.172 152.508 185.109 152.836 184.281 153.492C183.453 154.133 183.039 154.953 183.039 155.953H177.344C177.344 154.562 177.805 153.266 178.727 152.062C179.648 150.844 180.898 149.891 182.477 149.203C184.07 148.516 185.844 148.172 187.797 148.172C190.766 148.172 193.133 148.922 194.898 150.422C196.664 151.906 197.57 154 197.617 156.703V168.141C197.617 170.422 197.938 172.242 198.578 173.602V174H192.766ZM186.508 169.898C187.633 169.898 188.688 169.625 189.672 169.078C190.672 168.531 191.422 167.797 191.922 166.875V162.094H188.852C186.742 162.094 185.156 162.461 184.094 163.195C183.031 163.93 182.5 164.969 182.5 166.312C182.5 167.406 182.859 168.281 183.578 168.938C184.312 169.578 185.289 169.898 186.508 169.898ZM202.586 161.133C202.586 157.195 203.508 154.055 205.352 151.711C207.211 149.352 209.672 148.172 212.734 148.172C215.625 148.172 217.898 149.18 219.555 151.195L219.812 148.641H224.945V173.227C224.945 176.555 223.906 179.18 221.828 181.102C219.766 183.023 216.977 183.984 213.461 183.984C211.602 183.984 209.781 183.594 208 182.812C206.234 182.047 204.891 181.039 203.969 179.789L206.664 176.367C208.414 178.445 210.57 179.484 213.133 179.484C215.023 179.484 216.516 178.969 217.609 177.938C218.703 176.922 219.25 175.422 219.25 173.438V171.727C217.609 173.555 215.422 174.469 212.688 174.469C209.719 174.469 207.289 173.289 205.398 170.93C203.523 168.57 202.586 165.305 202.586 161.133ZM208.258 161.625C208.258 164.172 208.773 166.18 209.805 167.648C210.852 169.102 212.297 169.828 214.141 169.828C216.438 169.828 218.141 168.844 219.25 166.875V155.719C218.172 153.797 216.484 152.836 214.188 152.836C212.312 152.836 210.852 153.578 209.805 155.062C208.773 156.547 208.258 158.734 208.258 161.625ZM241.984 174.469C238.375 174.469 235.445 173.336 233.195 171.07C230.961 168.789 229.844 165.758 229.844 161.977V161.273C229.844 158.742 230.328 156.484 231.297 154.5C232.281 152.5 233.656 150.945 235.422 149.836C237.188 148.727 239.156 148.172 241.328 148.172C244.781 148.172 247.445 149.273 249.32 151.477C251.211 153.68 252.156 156.797 252.156 160.828V163.125H235.586C235.758 165.219 236.453 166.875 237.672 168.094C238.906 169.312 240.453 169.922 242.312 169.922C244.922 169.922 247.047 168.867 248.688 166.758L251.758 169.688C250.742 171.203 249.383 172.383 247.68 173.227C245.992 174.055 244.094 174.469 241.984 174.469ZM241.305 152.742C239.742 152.742 238.477 153.289 237.508 154.383C236.555 155.477 235.945 157 235.68 158.953H246.531V158.531C246.406 156.625 245.898 155.188 245.008 154.219C244.117 153.234 242.883 152.742 241.305 152.742ZM267.648 161.789H255.344V157.195H267.648V161.789ZM287.5 174C287.25 173.516 287.031 172.727 286.844 171.633C285.031 173.523 282.812 174.469 280.188 174.469C277.641 174.469 275.562 173.742 273.953 172.289C272.344 170.836 271.539 169.039 271.539 166.898C271.539 164.195 272.539 162.125 274.539 160.688C276.555 159.234 279.43 158.508 283.164 158.508H286.656V156.844C286.656 155.531 286.289 154.484 285.555 153.703C284.82 152.906 283.703 152.508 282.203 152.508C280.906 152.508 279.844 152.836 279.016 153.492C278.188 154.133 277.773 154.953 277.773 155.953H272.078C272.078 154.562 272.539 153.266 273.461 152.062C274.383 150.844 275.633 149.891 277.211 149.203C278.805 148.516 280.578 148.172 282.531 148.172C285.5 148.172 287.867 148.922 289.633 150.422C291.398 151.906 292.305 154 292.352 156.703V168.141C292.352 170.422 292.672 172.242 293.312 173.602V174H287.5ZM281.242 169.898C282.367 169.898 283.422 169.625 284.406 169.078C285.406 168.531 286.156 167.797 286.656 166.875V162.094H283.586C281.477 162.094 279.891 162.461 278.828 163.195C277.766 163.93 277.234 164.969 277.234 166.312C277.234 167.406 277.594 168.281 278.312 168.938C279.047 169.578 280.023 169.898 281.242 169.898ZM320.523 161.578C320.523 165.5 319.633 168.633 317.852 170.977C316.07 173.305 313.68 174.469 310.68 174.469C307.898 174.469 305.672 173.555 304 171.727V183.75H298.305V148.641H303.555L303.789 151.219C305.461 149.188 307.734 148.172 310.609 148.172C313.703 148.172 316.125 149.328 317.875 151.641C319.641 153.938 320.523 157.133 320.523 161.227V161.578ZM314.852 161.086C314.852 158.555 314.344 156.547 313.328 155.062C312.328 153.578 310.891 152.836 309.016 152.836C306.688 152.836 305.016 153.797 304 155.719V166.969C305.031 168.938 306.719 169.922 309.062 169.922C310.875 169.922 312.289 169.195 313.305 167.742C314.336 166.273 314.852 164.055 314.852 161.086ZM331.422 174H325.727V148.641H331.422V174ZM325.375 142.055C325.375 141.18 325.648 140.453 326.195 139.875C326.758 139.297 327.555 139.008 328.586 139.008C329.617 139.008 330.414 139.297 330.977 139.875C331.539 140.453 331.82 141.18 331.82 142.055C331.82 142.914 331.539 143.633 330.977 144.211C330.414 144.773 329.617 145.055 328.586 145.055C327.555 145.055 326.758 144.773 326.195 144.211C325.648 143.633 325.375 142.914 325.375 142.055Z" fill="black"/>
<path d="M212.339 21.6306V108.297C212.339 109.29 211.527 110.103 210.534 110.103H123.867C122.874 110.103 122.062 109.29 122.062 108.297V21.6306C122.062 20.6375 122.874 19.825 123.867 19.825H210.534C211.527 19.825 212.339 20.6375 212.339 21.6306Z" fill="#F4AA41"/>
<path d="M181.952 105.851V110.103H152.467V105.851C152.467 103.823 154.905 102.164 157.884 102.164H176.535C179.514 102.164 181.952 103.823 181.952 105.851Z" fill="#D0CFCE"/>
<path d="M181.846 21.6044V30.9409C181.846 32.8619 179.408 34.4334 176.429 34.4334H157.778C154.799 34.4334 152.361 32.8619 152.361 30.9409V21.6044" fill="#D0CFCE"/>
<path d="M212.339 21.6306V108.297C212.339 109.29 211.527 110.103 210.534 110.103H123.867C122.874 110.103 122.062 109.29 122.062 108.297V21.6306C122.062 20.6375 122.874 19.825 123.867 19.825H210.534C211.527 19.825 212.339 20.6375 212.339 21.6306Z" stroke="black" stroke-width="2" stroke-miterlimit="10" stroke-linecap="round" stroke-linejoin="round"/>
<path d="M176.651 53.1516H157.768C154.851 53.1516 152.464 50.7648 152.464 47.8474C152.464 44.9302 154.851 42.5432 157.768 42.5432H176.651C179.568 42.5432 181.955 44.93 181.955 47.8474C181.955 50.7648 179.568 53.1516 176.651 53.1516Z" fill="black" stroke="black" stroke-width="2" stroke-miterlimit="10"/>
<path d="M181.952 105.851V110.103H152.467V105.851C152.467 103.823 154.905 102.164 157.884 102.164H176.535C179.514 102.164 181.952 103.823 181.952 105.851Z" stroke="black" stroke-width="2" stroke-miterlimit="10" stroke-linecap="round" stroke-linejoin="round"/>
<path d="M181.846 21.6044V30.9409C181.846 32.8619 179.408 34.4334 176.429 34.4334H157.778C154.799 34.4334 152.361 32.8619 152.361 30.9409V21.6044" stroke="black" stroke-width="2" stroke-miterlimit="10" stroke-linecap="round" stroke-linejoin="round"/>
</svg>
